<svg id="play-butto" xmlns="http://www.w3.org/2000/svg" width="96.312" height="96.312" viewBox="0 0 96.312 96.312">
  <g id="Group_432" data-name="Group 432">
    <g id="Group_431" data-name="Group 431">
      <path id="Path_429" data-name="Path 429" d="M82.207,14.1a48.156,48.156,0,0,0-68.1,68.1,48.175,48.175,0,0,0,58.969,7.164,3.762,3.762,0,1,0-3.9-6.436A40.992,40.992,0,1,1,81.9,70.707a3.762,3.762,0,1,0,6.255,4.182A48.037,48.037,0,0,0,82.207,14.1Z" fill="#fff"/>
      <path id="Path_430" data-name="Path 430" d="M179.741,146.43a8.478,8.478,0,0,0-12.726,7.354v24.636a8.456,8.456,0,0,0,12.726,7.354l21.227-12.318a8.508,8.508,0,0,0,0-14.708Zm17.451,20.518-21.227,12.318a.9.9,0,0,1-.939,0,.931.931,0,0,1-.485-.848V153.784a.931.931,0,0,1,.485-.848.943.943,0,0,1,.47-.132.926.926,0,0,1,.47.134l21.227,12.318a.983.983,0,0,1,0,1.692Z" transform="translate(-135.598 -117.946)" fill="#fff"/>
    </g>
  </g>
</svg>
