<?xml version="1.0" encoding="UTF-8" standalone="no" ?>
<!DOCTYPE svg PUBLIC "-//W3C//DTD SVG 1.1//EN" "http://www.w3.org/Graphics/SVG/1.1/DTD/svg11.dtd">
<svg xmlns="http://www.w3.org/2000/svg" xmlns:xlink="http://www.w3.org/1999/xlink" version="1.1" width="350" height="350" viewBox="0 0 350 350" xml:space="preserve">
<desc>Created with Fabric.js 1.7.22</desc>
<defs>
</defs>
<g id="icon" style="stroke: none; stroke-width: 1; stroke-dasharray: none; stroke-linecap: butt; stroke-linejoin: miter; stroke-miterlimit: 10; fill: none; fill-rule: nonzero; opacity: 1;" transform="translate(351.94444444444446 351.9444444444444) rotate(180) scale(3.89 3.89)" >
	<path d="M 89 0 H 52.316 C 33.072 0 17.417 15.755 17.417 35.121 c 0 0.055 0.004 0.107 0.013 0.16 v 24.545 H 1 c -0.404 0 -0.768 0.243 -0.923 0.616 c -0.155 0.373 -0.071 0.803 0.214 1.09 l 28.002 28.186 c 0.376 0.377 1.043 0.377 1.419 0 l 28.002 -28.186 c 0.285 -0.287 0.369 -0.716 0.214 -1.09 c -0.154 -0.373 -0.519 -0.616 -0.923 -0.616 H 40.576 V 35.121 c 0 -0.054 -0.004 -0.105 -0.012 -0.156 c 0.083 -6.455 5.323 -11.679 11.752 -11.679 H 89 c 0.553 0 1 -0.447 1 -1 V 1 C 90 0.447 89.553 0 89 0 z M 19.417 34.964 C 19.501 16.773 34.227 2 52.316 2 H 88 v 19.285 H 52.316 c -7.583 0 -13.753 6.207 -13.753 13.836 c 0 0.056 0.004 0.109 0.013 0.163 v 25.542 c 0 0.552 0.448 1 1 1 h 15.026 L 29.003 87.593 L 3.403 61.826 h 15.026 c 0.552 0 1 -0.448 1 -1 V 35.121 C 19.429 35.067 19.425 35.015 19.417 34.964 z" style="stroke: none; stroke-width: 1; stroke-dasharray: none; stroke-linecap: butt; stroke-linejoin: miter; stroke-miterlimit: 10; fill: rgb(255,255,255); fill-rule: nonzero; opacity: 1;" transform=" matrix(1 0 0 1 0 0) " stroke-linecap="round" />
</g>
</svg>